<svg version="1.1" viewBox="0.0 0.0 418.0 371.0" fill="none" stroke="none" stroke-linecap="square" stroke-miterlimit="10" width="418" height="371" xmlns:xlink="http://www.w3.org/1999/xlink" xmlns="http://www.w3.org/2000/svg"><path fill="#ffffff" d="M0 0L418.0 0L418.0 371.0L0 371.0L0 0Z" fill-rule="nonzero"/><path stroke="#000000" stroke-width="1.0" stroke-linecap="butt" stroke-opacity="0.0" d="M77.5 273.5L399.5 273.5" fill-rule="nonzero"/><path stroke="#000000" stroke-width="1.0" stroke-linecap="butt" stroke-opacity="0.0" d="M77.5 247.5L399.5 247.5" fill-rule="nonzero"/><path stroke="#000000" stroke-width="1.0" stroke-linecap="butt" stroke-opacity="0.0" d="M77.5 194.5L399.5 194.5" fill-rule="nonzero"/><path stroke="#000000" stroke-width="1.0" stroke-linecap="butt" stroke-opacity="0.0" d="M77.5 167.5L399.5 167.5" fill-rule="nonzero"/><path stroke="#000000" stroke-width="1.0" stroke-linecap="butt" stroke-opacity="0.0" d="M77.5 114.5L399.5 114.5" fill-rule="nonzero"/><path stroke="#000000" stroke-width="1.0" stroke-linecap="butt" stroke-opacity="0.0" d="M77.5 88.5L399.5 88.5" fill-rule="nonzero"/><clipPath id="id_0"><path d="M77.55 61.916668L399.45 61.916668L399.45 300.45L77.55 300.45L77.55 61.916668Z" clip-rule="nonzero"/></clipPath><path stroke="#6aa84f" stroke-width="2.0" stroke-linecap="butt" clip-path="url(#id_0)" d="M77.55 300.05243C77.55 300.05243 101.39445 299.85367 113.316666 299.65488C125.23889 299.45612 137.16112 299.25732 149.08333 298.85977C161.00555 298.46222 172.92778 298.06467 184.85 297.26956C196.77222 296.47446 208.69444 295.67932 220.61667 294.0891C232.5389 292.4989 244.4611 290.90866 256.38333 287.7282C268.30554 284.5478 280.22778 281.36734 292.15 275.00644C304.07224 268.64557 315.99445 262.28467 327.91666 249.56288C339.8389 236.84111 351.7611 224.11934 363.68332 198.67578C375.60556 173.23222 399.45 96.90156 399.45 96.90156" fill-rule="nonzero"/><path fill="#000000" fill-opacity="0.0" clip-path="url(#id_0)" d="M80.55 300.05243C80.55 301.7093 79.206856 303.05243 77.55 303.05243C75.89314 303.05243 74.55 301.7093 74.55 300.05243C74.55 298.3956 75.89314 297.05243 77.55 297.05243C79.206856 297.05243 80.55 298.3956 80.55 300.05243Z" fill-rule="nonzero"/><path fill="#000000" fill-opacity="0.0" clip-path="url(#id_0)" d="M116.316666 299.65488C116.316666 301.31174 114.97352 302.65488 113.316666 302.65488C111.65981 302.65488 110.316666 301.31174 110.316666 299.65488C110.316666 297.99805 111.65981 296.65488 113.316666 296.65488C114.97352 296.65488 116.316666 297.99805 116.316666 299.65488Z" fill-rule="nonzero"/><path fill="#000000" fill-opacity="0.0" clip-path="url(#id_0)" d="M152.08333 298.85977C152.08333 300.51663 150.74019 301.85977 149.08333 301.85977C147.42648 301.85977 146.08333 300.51663 146.08333 298.85977C146.08333 297.2029 147.42648 295.85977 149.08333 295.85977C150.74019 295.85977 152.08333 297.2029 152.08333 298.85977Z" fill-rule="nonzero"/><path fill="#000000" fill-opacity="0.0" clip-path="url(#id_0)" d="M187.85 297.26956C187.85 298.92642 186.50685 300.26956 184.85 300.26956C183.19315 300.26956 181.85 298.92642 181.85 297.26956C181.85 295.6127 183.19315 294.26956 184.85 294.26956C186.50685 294.26956 187.85 295.6127 187.85 297.26956Z" fill-rule="nonzero"/><path fill="#000000" fill-opacity="0.0" clip-path="url(#id_0)" d="M223.61667 294.0891C223.61667 295.74597 222.27351 297.0891 220.61667 297.0891C218.95981 297.0891 217.61667 295.74597 217.61667 294.0891C217.61667 292.43225 218.95981 291.0891 220.61667 291.0891C222.27351 291.0891 223.61667 292.43225 223.61667 294.0891Z" fill-rule="nonzero"/><path fill="#000000" fill-opacity="0.0" clip-path="url(#id_0)" d="M259.38333 287.7282C259.38333 289.38507 258.0402 290.7282 256.38333 290.7282C254.72649 290.7282 253.38333 289.38507 253.38333 287.7282C253.38333 286.07138 254.72649 284.7282 256.38333 284.7282C258.0402 284.7282 259.38333 286.07138 259.38333 287.7282Z" fill-rule="nonzero"/><path fill="#000000" fill-opacity="0.0" clip-path="url(#id_0)" d="M295.15 275.00644C295.15 276.6633 293.80685 278.00644 292.15 278.00644C290.49313 278.00644 289.15 276.6633 289.15 275.00644C289.15 273.34958 290.49313 272.00644 292.15 272.00644C293.80685 272.00644 295.15 273.34958 295.15 275.00644Z" fill-rule="nonzero"/><path fill="#000000" fill-opacity="0.0" clip-path="url(#id_0)" d="M330.91666 249.56288C330.91666 251.21974 329.57352 252.56288 327.91666 252.56288C326.25983 252.56288 324.91666 251.21974 324.91666 249.56288C324.91666 247.90604 326.25983 246.56288 327.91666 246.56288C329.57352 246.56288 330.91666 247.90604 330.91666 249.56288Z" fill-rule="nonzero"/><path fill="#000000" fill-opacity="0.0" clip-path="url(#id_0)" d="M366.68332 198.67578C366.68332 200.33263 365.34018 201.67578 363.68332 201.67578C362.0265 201.67578 360.68332 200.33263 360.68332 198.67578C360.68332 197.01892 362.0265 195.67578 363.68332 195.67578C365.34018 195.67578 366.68332 197.01892 366.68332 198.67578Z" fill-rule="nonzero"/><path fill="#000000" fill-opacity="0.0" clip-path="url(#id_0)" d="M402.45 96.90156C402.45 98.55841 401.10684 99.90156 399.45 99.90156C397.79315 99.90156 396.45 98.55841 396.45 96.90156C396.45 95.2447 397.79315 93.90156 399.45 93.90156C401.10684 93.90156 402.45 95.2447 402.45 96.90156Z" fill-rule="nonzero"/><path fill="#000000" d="M195.0625 346.4344L196.1875 346.73126Q195.82812 348.1219 194.90625 348.85626Q193.98438 349.59064 192.64062 349.59064Q191.25 349.59064 190.375 349.02814Q189.5 348.46564 189.04688 347.40314Q188.59375 346.325 188.59375 345.09064Q188.59375 343.7469 189.10938 342.7469Q189.625 341.7469 190.5625 341.23126Q191.51562 340.71564 192.65625 340.71564Q193.9375 340.71564 194.8125 341.3719Q195.70312 342.02814 196.04688 343.21564L194.92188 343.48126Q194.625 342.54376 194.04688 342.1219Q193.48438 341.6844 192.625 341.6844Q191.64062 341.6844 190.96875 342.16876Q190.3125 342.6375 190.03125 343.4344Q189.76562 344.23126 189.76562 345.09064Q189.76562 346.1844 190.07812 346.9969Q190.40625 347.8094 191.07812 348.21564Q191.75 348.6219 192.54688 348.6219Q193.5 348.6219 194.15625 348.075Q194.82812 347.52814 195.0625 346.4344ZM197.40625 346.34064Q197.40625 344.60626 198.35938 343.77814Q199.15625 343.09064 200.3125 343.09064Q201.59375 343.09064 202.40625 343.9344Q203.23438 344.7625 203.23438 346.2469Q203.23438 347.45 202.875 348.1375Q202.51562 348.825 201.8125 349.21564Q201.125 349.59064 200.3125 349.59064Q199.01562 349.59064 198.20312 348.7625Q197.40625 347.91876 197.40625 346.34064ZM198.48438 346.34064Q198.48438 347.52814 199.0 348.1219Q199.53125 348.71564 200.3125 348.71564Q201.10938 348.71564 201.625 348.1219Q202.14062 347.52814 202.14062 346.3094Q202.14062 345.15314 201.60938 344.5594Q201.09375 343.96564 200.3125 343.96564Q199.53125 343.96564 199.0 344.5594Q198.48438 345.1375 198.48438 346.34064ZM204.79688 349.45L204.79688 343.23126L205.73438 343.23126L205.73438 344.10626Q206.03125 343.6375 206.51562 343.3719Q207.0 343.09064 207.625 343.09064Q208.3125 343.09064 208.75 343.3719Q209.20312 343.65314 209.375 344.16876Q210.125 343.09064 211.29688 343.09064Q212.23438 343.09064 212.71875 343.60626Q213.21875 344.10626 213.21875 345.1844L213.21875 349.45L212.17188 349.45L212.17188 345.52814Q212.17188 344.90314 212.0625 344.6219Q211.96875 344.34064 211.70312 344.16876Q211.4375 343.9969 211.0625 343.9969Q210.40625 343.9969 209.96875 344.4344Q209.54688 344.8719 209.54688 345.84064L209.54688 349.45L208.48438 349.45L208.48438 345.40314Q208.48438 344.7 208.21875 344.35626Q207.96875 343.9969 207.39062 343.9969Q206.9375 343.9969 206.5625 344.23126Q206.1875 344.46564 206.01562 344.91876Q205.84375 345.3719 205.84375 346.21564L205.84375 349.45L204.79688 349.45ZM214.79688 351.84064L214.79688 343.23126L215.75 343.23126L215.75 344.02814Q216.09375 343.5594 216.51562 343.325Q216.95312 343.09064 217.5625 343.09064Q218.35938 343.09064 218.96875 343.4969Q219.57812 343.90314 219.875 344.65314Q220.1875 345.40314 220.1875 346.29376Q220.1875 347.2469 219.84375 348.0125Q219.51562 348.77814 218.85938 349.1844Q218.20312 349.59064 217.48438 349.59064Q216.95312 349.59064 216.53125 349.3719Q216.10938 349.1375 215.84375 348.8094L215.84375 351.84064L214.79688 351.84064ZM215.75 346.3719Q215.75 347.575 216.23438 348.15314Q216.71875 348.71564 217.40625 348.71564Q218.10938 348.71564 218.60938 348.1219Q219.10938 347.52814 219.10938 346.27814Q219.10938 345.09064 218.625 344.5125Q218.14062 343.91876 217.45312 343.91876Q216.78125 343.91876 216.26562 344.54376Q215.75 345.16876 215.75 346.3719ZM225.85938 348.6844Q225.26562 349.1844 224.71875 349.3875Q224.1875 349.59064 223.5625 349.59064Q222.53125 349.59064 221.98438 349.09064Q221.4375 348.59064 221.4375 347.8094Q221.4375 347.35626 221.64062 346.98126Q221.84375 346.59064 222.1875 346.3719Q222.53125 346.1375 222.95312 346.02814Q223.25 345.9344 223.89062 345.85626Q225.15625 345.71564 225.76562 345.4969Q225.76562 345.27814 225.76562 345.23126Q225.76562 344.575 225.46875 344.3094Q225.0625 343.96564 224.26562 343.96564Q223.53125 343.96564 223.17188 344.23126Q222.8125 344.48126 222.64062 345.1375L221.60938 344.9969Q221.75 344.34064 222.07812 343.9344Q222.40625 343.52814 223.01562 343.3094Q223.625 343.09064 224.42188 343.09064Q225.21875 343.09064 225.71875 343.27814Q226.21875 343.46564 226.45312 343.7469Q226.6875 344.02814 226.78125 344.46564Q226.82812 344.73126 226.82812 345.4344L226.82812 346.84064Q226.82812 348.3094 226.89062 348.7Q226.96875 349.09064 227.17188 349.45L226.0625 349.45Q225.90625 349.1219 225.85938 348.6844ZM225.76562 346.325Q225.1875 346.5594 224.04688 346.73126Q223.39062 346.825 223.125 346.95Q222.85938 347.0594 222.70312 347.27814Q222.5625 347.4969 222.5625 347.77814Q222.5625 348.2 222.875 348.48126Q223.20312 348.7625 223.8125 348.7625Q224.42188 348.7625 224.89062 348.4969Q225.375 348.23126 225.59375 347.7625Q225.76562 347.40314 225.76562 346.71564L225.76562 346.325ZM228.78125 349.45L228.78125 343.23126L229.73438 343.23126L229.73438 344.16876Q230.09375 343.5125 230.39062 343.3094Q230.70312 343.09064 231.07812 343.09064Q231.60938 343.09064 232.15625 343.41876L231.79688 344.40314Q231.40625 344.16876 231.03125 344.16876Q230.67188 344.16876 230.39062 344.3875Q230.125 344.59064 230.01562 344.96564Q229.82812 345.52814 229.82812 346.1844L229.82812 349.45L228.78125 349.45ZM235.09375 348.5125L235.25 349.4344Q234.79688 349.52814 234.45312 349.52814Q233.875 349.52814 233.5625 349.35626Q233.25 349.16876 233.10938 348.8719Q232.98438 348.575 232.98438 347.6219L232.98438 344.04376L232.21875 344.04376L232.21875 343.23126L232.98438 343.23126L232.98438 341.6844L234.03125 341.0594L234.03125 343.23126L235.09375 343.23126L235.09375 344.04376L234.03125 344.04376L234.03125 347.6844Q234.03125 348.1375 234.07812 348.2625Q234.14062 348.3875 234.26562 348.46564Q234.39062 348.54376 234.625 348.54376Q234.8125 348.54376 235.09375 348.5125ZM235.79688 342.075L235.79688 340.85626L236.85938 340.85626L236.85938 342.075L235.79688 342.075ZM235.79688 349.45L235.79688 343.23126L236.85938 343.23126L236.85938 349.45L235.79688 349.45ZM238.76562 349.45L238.76562 340.85626L239.82812 340.85626L239.82812 349.45L238.76562 349.45ZM241.79688 349.45L241.79688 340.85626L242.84375 340.85626L242.84375 343.9344Q243.57812 343.09064 244.70312 343.09064Q245.40625 343.09064 245.90625 343.3719Q246.42188 343.6375 246.64062 344.1219Q246.85938 344.59064 246.85938 345.5125L246.85938 349.45L245.8125 349.45L245.8125 345.5125Q245.8125 344.71564 245.46875 344.35626Q245.125 343.9969 244.5 343.9969Q244.03125 343.9969 243.60938 344.2469Q243.20312 344.48126 243.01562 344.90314Q242.84375 345.3094 242.84375 346.04376L242.84375 349.45L241.79688 349.45ZM252.85938 348.6844Q252.26562 349.1844 251.71875 349.3875Q251.1875 349.59064 250.5625 349.59064Q249.53125 349.59064 248.98438 349.09064Q248.4375 348.59064 248.4375 347.8094Q248.4375 347.35626 248.64062 346.98126Q248.84375 346.59064 249.1875 346.3719Q249.53125 346.1375 249.95312 346.02814Q250.25 345.9344 250.89062 345.85626Q252.15625 345.71564 252.76562 345.4969Q252.76562 345.27814 252.76562 345.23126Q252.76562 344.575 252.46875 344.3094Q252.0625 343.96564 251.26562 343.96564Q250.53125 343.96564 250.17188 344.23126Q249.8125 344.48126 249.64062 345.1375L248.60938 344.9969Q248.75 344.34064 249.07812 343.9344Q249.40625 343.52814 250.01562 343.3094Q250.625 343.09064 251.42188 343.09064Q252.21875 343.09064 252.71875 343.27814Q253.21875 343.46564 253.45312 343.7469Q253.6875 344.02814 253.78125 344.46564Q253.82812 344.73126 253.82812 345.4344L253.82812 346.84064Q253.82812 348.3094 253.89062 348.7Q253.96875 349.09064 254.17188 349.45L253.0625 349.45Q252.90625 349.1219 252.85938 348.6844ZM252.76562 346.325Q252.1875 346.5594 251.04688 346.73126Q250.39062 346.825 250.125 346.95Q249.85938 347.0594 249.70312 347.27814Q249.5625 347.4969 249.5625 347.77814Q249.5625 348.2 249.875 348.48126Q250.20312 348.7625 250.8125 348.7625Q251.42188 348.7625 251.89062 348.4969Q252.375 348.23126 252.59375 347.7625Q252.76562 347.40314 252.76562 346.71564L252.76562 346.325ZM255.79688 349.45L255.79688 343.23126L256.73438 343.23126L256.73438 344.10626Q257.03125 343.6375 257.51562 343.3719Q258.0 343.09064 258.625 343.09064Q259.3125 343.09064 259.75 343.3719Q260.20312 343.65314 260.375 344.16876Q261.125 343.09064 262.29688 343.09064Q263.23438 343.09064 263.71875 343.60626Q264.21875 344.10626 264.21875 345.1844L264.21875 349.45L263.17188 349.45L263.17188 345.52814Q263.17188 344.90314 263.0625 344.6219Q262.96875 344.34064 262.70312 344.16876Q262.4375 343.9969 262.0625 343.9969Q261.40625 343.9969 260.96875 344.4344Q260.54688 344.8719 260.54688 345.84064L260.54688 349.45L259.48438 349.45L259.48438 345.40314Q259.48438 344.7 259.21875 344.35626Q258.96875 343.9969 258.39062 343.9969Q257.9375 343.9969 257.5625 344.23126Q257.1875 344.46564 257.01562 344.91876Q256.84375 345.3719 256.84375 346.21564L256.84375 349.45L255.79688 349.45ZM270.04688 347.45L271.14062 347.575Q270.89062 348.52814 270.1875 349.0594Q269.48438 349.59064 268.40625 349.59064Q267.04688 349.59064 266.23438 348.7469Q265.4375 347.90314 265.4375 346.3875Q265.4375 344.825 266.25 343.96564Q267.0625 343.09064 268.34375 343.09064Q269.59375 343.09064 270.375 343.9344Q271.17188 344.77814 271.17188 346.325Q271.17188 346.41876 271.17188 346.60626L266.53125 346.60626Q266.59375 347.6375 267.10938 348.1844Q267.625 348.71564 268.40625 348.71564Q268.98438 348.71564 269.39062 348.41876Q269.8125 348.10626 270.04688 347.45ZM266.59375 345.7469L270.0625 345.7469Q270.0 344.95 269.67188 344.5594Q269.15625 343.95 268.35938 343.95Q267.625 343.95 267.125 344.4344Q266.64062 344.91876 266.59375 345.7469ZM272.79688 349.45L272.79688 343.23126L273.73438 343.23126L273.73438 344.10626Q274.42188 343.09064 275.71875 343.09064Q276.28125 343.09064 276.75 343.29376Q277.23438 343.4969 277.46875 343.825Q277.70312 344.15314 277.79688 344.59064Q277.84375 344.8875 277.84375 345.6219L277.84375 349.45L276.79688 349.45L276.79688 345.66876Q276.79688 345.0125 276.67188 344.7Q276.54688 344.3875 276.23438 344.2Q275.92188 343.9969 275.5 343.9969Q274.82812 343.9969 274.32812 344.4344Q273.84375 344.85626 273.84375 346.04376L273.84375 349.45L272.79688 349.45ZM282.09375 348.5125L282.25 349.4344Q281.79688 349.52814 281.45312 349.52814Q280.875 349.52814 280.5625 349.35626Q280.25 349.16876 280.10938 348.8719Q279.98438 348.575 279.98438 347.6219L279.98438 344.04376L279.21875 344.04376L279.21875 343.23126L279.98438 343.23126L279.98438 341.6844L281.03125 341.0594L281.03125 343.23126L282.09375 343.23126L282.09375 344.04376L281.03125 344.04376L281.03125 347.6844Q281.03125 348.1375 281.07812 348.2625Q281.14062 348.3875 281.26562 348.46564Q281.39062 348.54376 281.625 348.54376Q281.8125 348.54376 282.09375 348.5125ZM282.40625 346.34064Q282.40625 344.60626 283.35938 343.77814Q284.15625 343.09064 285.3125 343.09064Q286.59375 343.09064 287.40625 343.9344Q288.23438 344.7625 288.23438 346.2469Q288.23438 347.45 287.875 348.1375Q287.51562 348.825 286.8125 349.21564Q286.125 349.59064 285.3125 349.59064Q284.01562 349.59064 283.20312 348.7625Q282.40625 347.91876 282.40625 346.34064ZM283.48438 346.34064Q283.48438 347.52814 284.0 348.1219Q284.53125 348.71564 285.3125 348.71564Q286.10938 348.71564 286.625 348.1219Q287.14062 347.52814 287.14062 346.3094Q287.14062 345.15314 286.60938 344.5594Q286.09375 343.96564 285.3125 343.96564Q284.53125 343.96564 284.0 344.5594Q283.48438 345.1375 283.48438 346.34064Z" fill-rule="nonzero"/><path fill="#000000" d="M29.550013 222.69896L20.956263 219.40208L20.956263 218.18333L29.550013 214.66771L29.550013 215.94896L26.940638 216.96458L26.940638 220.54271L29.550013 221.49583L29.550013 222.69896ZM26.018763 220.21458L26.018763 217.30833L23.643763 218.19896Q22.565638 218.62083 21.862513 218.80833Q22.690638 218.98021 23.503138 219.27708L26.018763 220.21458ZM31.940638 213.88646L23.331263 213.88646L23.331263 212.93333L24.128138 212.93333Q23.659388 212.58958 23.425013 212.16771Q23.190638 211.73021 23.190638 211.12083Q23.190638 210.32396 23.596888 209.71458Q24.003138 209.10521 24.753138 208.80833Q25.503138 208.49583 26.393763 208.49583Q27.346888 208.49583 28.112513 208.83958Q28.878138 209.16771 29.284388 209.82396Q29.690638 210.48021 29.690638 211.19896Q29.690638 211.73021 29.471888 212.15208Q29.237513 212.57396 28.909388 212.83958L31.940638 212.83958L31.940638 213.88646ZM26.471888 212.93333Q27.675013 212.93333 28.253138 212.44896Q28.815638 211.96458 28.815638 211.27708Q28.815638 210.57396 28.221888 210.07396Q27.628138 209.57396 26.378138 209.57396Q25.190638 209.57396 24.612513 210.05833Q24.018763 210.54271 24.018763 211.23021Q24.018763 211.90208 24.643763 212.41771Q25.268763 212.93333 26.471888 212.93333ZM29.550013 206.90208L23.331263 206.90208L23.331263 205.94896L24.268763 205.94896Q23.612513 205.58958 23.409388 205.29271Q23.190638 204.98021 23.190638 204.60521Q23.190638 204.07396 23.518763 203.52708L24.503138 203.88646Q24.268763 204.27708 24.268763 204.65208Q24.268763 205.01146 24.487513 205.29271Q24.690638 205.55833 25.065638 205.66771Q25.628138 205.85521 26.284388 205.85521L29.550013 205.85521L29.550013 206.90208ZM27.550013 198.63646L27.675013 197.54271Q28.628138 197.79271 29.159388 198.49583Q29.690638 199.19896 29.690638 200.27708Q29.690638 201.63646 28.846888 202.44896Q28.003138 203.24583 26.487513 203.24583Q24.925013 203.24583 24.065638 202.43333Q23.190638 201.62083 23.190638 200.33958Q23.190638 199.08958 24.034388 198.30833Q24.878138 197.51146 26.425013 197.51146Q26.518763 197.51146 26.706263 197.51146L26.706263 202.15208Q27.737513 202.08958 28.284388 201.57396Q28.815638 201.05833 28.815638 200.27708Q28.815638 199.69896 28.518763 199.29271Q28.206263 198.87083 27.550013 198.63646ZM25.846888 202.08958L25.846888 198.62083Q25.050013 198.68333 24.659388 199.01146Q24.050013 199.52708 24.050013 200.32396Q24.050013 201.05833 24.534388 201.55833Q25.018763 202.04271 25.846888 202.08958ZM29.550013 195.88646L23.331263 195.88646L23.331263 194.94896L24.206263 194.94896Q23.190638 194.26146 23.190638 192.96458Q23.190638 192.40208 23.393763 191.93333Q23.596888 191.44896 23.925013 191.21458Q24.253138 190.98021 24.690638 190.88646Q24.987513 190.83958 25.721888 190.83958L29.550013 190.83958L29.550013 191.88646L25.768763 191.88646Q25.112513 191.88646 24.800013 192.01146Q24.487513 192.13646 24.300013 192.44896Q24.096888 192.76146 24.096888 193.18333Q24.096888 193.85521 24.534388 194.35521Q24.956263 194.83958 26.143763 194.83958L29.550013 194.83958L29.550013 195.88646ZM29.550013 184.85521L28.768763 184.85521Q29.690638 185.44896 29.690638 186.58958Q29.690638 187.33958 29.284388 187.96458Q28.862513 188.58958 28.128138 188.93333Q27.393763 189.27708 26.440638 189.27708Q25.518763 189.27708 24.753138 188.96458Q23.987513 188.65208 23.596888 188.02708Q23.190638 187.40208 23.190638 186.63646Q23.190638 186.07396 23.425013 185.63646Q23.659388 185.19896 24.034388 184.91771L20.956263 184.91771L20.956263 183.87083L29.550013 183.87083L29.550013 184.85521ZM26.440638 188.18333Q27.643763 188.18333 28.237513 187.68333Q28.815638 187.18333 28.815638 186.49583Q28.815638 185.80833 28.253138 185.32396Q27.690638 184.83958 26.534388 184.83958Q25.253138 184.83958 24.659388 185.33958Q24.065638 185.82396 24.065638 186.54271Q24.065638 187.24583 24.643763 187.71458Q25.206263 188.18333 26.440638 188.18333ZM22.175013 181.88646L20.956263 181.88646L20.956263 180.82396L22.175013 180.82396L22.175013 181.88646ZM29.550013 181.88646L23.331263 181.88646L23.331263 180.82396L29.550013 180.82396L29.550013 181.88646ZM29.550013 179.44896L28.690638 179.44896L24.143763 175.48021Q24.175013 176.16771 24.175013 176.68333L24.175013 179.21458L23.331263 179.21458L23.331263 174.12083L24.018763 174.12083L27.971888 177.49583L28.690638 178.15208Q28.643763 177.43333 28.643763 176.82396L28.643763 173.93333L29.550013 173.93333L29.550013 179.44896ZM28.784388 168.82396Q29.284388 169.41771 29.487513 169.96458Q29.690638 170.49583 29.690638 171.12083Q29.690638 172.15208 29.190638 172.69896Q28.690638 173.24583 27.909388 173.24583Q27.456263 173.24583 27.081263 173.04271Q26.690638 172.83958 26.471888 172.49583Q26.237513 172.15208 26.128138 171.73021Q26.034388 171.43333 25.956263 170.79271Q25.815638 169.52708 25.596888 168.91771Q25.378138 168.91771 25.331263 168.91771Q24.675013 168.91771 24.409388 169.21458Q24.065638 169.62083 24.065638 170.41771Q24.065638 171.15208 24.331263 171.51146Q24.581263 171.87083 25.237513 172.04271L25.096888 173.07396Q24.440638 172.93333 24.034388 172.60521Q23.628138 172.27708 23.409388 171.66771Q23.190638 171.05833 23.190638 170.26146Q23.190638 169.46458 23.378138 168.96458Q23.565638 168.46458 23.846888 168.23021Q24.128138 167.99583 24.565638 167.90208Q24.831263 167.85521 25.534388 167.85521L26.940638 167.85521Q28.409388 167.85521 28.800013 167.79271Q29.190638 167.71458 29.550013 167.51146L29.550013 168.62083Q29.221888 168.77708 28.784388 168.82396ZM26.425013 168.91771Q26.659388 169.49583 26.831263 170.63646Q26.925013 171.29271 27.050013 171.55833Q27.159388 171.82396 27.378138 171.98021Q27.596888 172.12083 27.878138 172.12083Q28.300013 172.12083 28.581263 171.80833Q28.862513 171.48021 28.862513 170.87083Q28.862513 170.26146 28.596888 169.79271Q28.331263 169.30833 27.862513 169.08958Q27.503138 168.91771 26.815638 168.91771L26.425013 168.91771ZM29.550013 161.85521L28.768763 161.85521Q29.690638 162.44896 29.690638 163.58958Q29.690638 164.33958 29.284388 164.96458Q28.862513 165.58958 28.128138 165.93333Q27.393763 166.27708 26.440638 166.27708Q25.518763 166.27708 24.753138 165.96458Q23.987513 165.65208 23.596888 165.02708Q23.190638 164.40208 23.190638 163.63646Q23.190638 163.07396 23.425013 162.63646Q23.659388 162.19896 24.034388 161.91771L20.956263 161.91771L20.956263 160.87083L29.550013 160.87083L29.550013 161.85521ZM26.440638 165.18333Q27.643763 165.18333 28.237513 164.68333Q28.815638 164.18333 28.815638 163.49583Q28.815638 162.80833 28.253138 162.32396Q27.690638 161.83958 26.534388 161.83958Q25.253138 161.83958 24.659388 162.33958Q24.065638 162.82396 24.065638 163.54271Q24.065638 164.24583 24.643763 164.71458Q25.206263 165.18333 26.440638 165.18333ZM26.440638 159.27708Q24.706263 159.27708 23.878138 158.32396Q23.190638 157.52708 23.190638 156.37083Q23.190638 155.08958 24.034388 154.27708Q24.862513 153.44896 26.346888 153.44896Q27.550013 153.44896 28.237513 153.80833Q28.925013 154.16771 29.315638 154.87083Q29.690638 155.55833 29.690638 156.37083Q29.690638 157.66771 28.862513 158.48021Q28.018763 159.27708 26.440638 159.27708ZM26.440638 158.19896Q27.628138 158.19896 28.221888 157.68333Q28.815638 157.15208 28.815638 156.37083Q28.815638 155.57396 28.221888 155.05833Q27.628138 154.54271 26.409388 154.54271Q25.253138 154.54271 24.659388 155.07396Q24.065638 155.58958 24.065638 156.37083Q24.065638 157.15208 24.659388 157.68333Q25.237513 158.19896 26.440638 158.19896Z" fill-rule="nonzero"/><path fill="#000000" d="M65.05 300.21564Q65.05 298.6844 65.3625 297.7625Q65.675 296.825 66.28438 296.325Q66.90938 295.825 67.84688 295.825Q68.53438 295.825 69.05 296.10626Q69.58125 296.3875 69.925 296.91876Q70.26875 297.4344 70.45625 298.1844Q70.64375 298.9344 70.64375 300.21564Q70.64375 301.73126 70.33125 302.65314Q70.03438 303.575 69.40938 304.09064Q68.8 304.59064 67.84688 304.59064Q66.6125 304.59064 65.89375 303.7Q65.05 302.6375 65.05 300.21564ZM66.12813 300.21564Q66.12813 302.325 66.62813 303.02814Q67.12813 303.73126 67.84688 303.73126Q68.58125 303.73126 69.06563 303.02814Q69.56563 302.325 69.56563 300.21564Q69.56563 298.09064 69.06563 297.40314Q68.58125 296.7 67.83125 296.7Q67.1125 296.7 66.675 297.3094Q66.12813 298.09064 66.12813 300.21564Z" fill-rule="nonzero"/><path fill="#000000" d="M56.596874 223.92326L56.596874 224.93889L50.909374 224.93889Q50.909374 224.56389 51.034374 224.20451Q51.253124 223.62639 51.721874 223.06389Q52.20625 222.50139 53.1125 221.76701Q54.51875 220.61076 55.003124 219.93889Q55.503124 219.26701 55.503124 218.67326Q55.503124 218.04826 55.05 217.62639Q54.596874 217.18889 53.878124 217.18889Q53.1125 217.18889 52.659374 217.64201Q52.20625 218.09514 52.190624 218.90764L51.1125 218.79826Q51.221874 217.57951 51.940624 216.95451Q52.675 216.31389 53.909374 216.31389Q55.14375 216.31389 55.8625 217.00139Q56.58125 217.68889 56.58125 218.70451Q56.58125 219.22014 56.3625 219.72014Q56.159374 220.20451 55.659374 220.76701Q55.175 221.31389 54.05 222.26701Q53.096874 223.06389 52.815624 223.36076Q52.55 223.64201 52.378124 223.92326L56.596874 223.92326ZM58.05 220.70451Q58.05 219.17326 58.3625 218.25139Q58.675 217.31389 59.284374 216.81389Q59.909374 216.31389 60.846874 216.31389Q61.534374 216.31389 62.05 216.59514Q62.58125 216.87639 62.925 217.40764Q63.26875 217.92326 63.45625 218.67326Q63.64375 219.42326 63.64375 220.70451Q63.64375 222.22014 63.33125 223.14201Q63.034374 224.06389 62.409374 224.57951Q61.8 225.07951 60.846874 225.07951Q59.6125 225.07951 58.89375 224.18889Q58.05 223.12639 58.05 220.70451ZM59.128124 220.70451Q59.128124 222.81389 59.628124 223.51701Q60.128124 224.22014 60.846874 224.22014Q61.58125 224.22014 62.065624 223.51701Q62.565624 222.81389 62.565624 220.70451Q62.565624 218.57951 62.065624 217.89201Q61.58125 217.18889 60.83125 217.18889Q60.1125 217.18889 59.675 217.79826Q59.128124 218.57951 59.128124 220.70451ZM65.05 220.70451Q65.05 219.17326 65.3625 218.25139Q65.675 217.31389 66.28438 216.81389Q66.90938 216.31389 67.84688 216.31389Q68.53438 216.31389 69.05 216.59514Q69.58125 216.87639 69.925 217.40764Q70.26875 217.92326 70.45625 218.67326Q70.64375 219.42326 70.64375 220.70451Q70.64375 222.22014 70.33125 223.14201Q70.03438 224.06389 69.40938 224.57951Q68.8 225.07951 67.84688 225.07951Q66.6125 225.07951 65.89375 224.18889Q65.05 223.12639 65.05 220.70451ZM66.12813 220.70451Q66.12813 222.81389 66.62813 223.51701Q67.12813 224.22014 67.84688 224.22014Q68.58125 224.22014 69.06563 223.51701Q69.56563 222.81389 69.56563 220.70451Q69.56563 218.57951 69.06563 217.89201Q68.58125 217.18889 67.83125 217.18889Q67.1125 217.18889 66.675 217.79826Q66.12813 218.57951 66.12813 220.70451Z" fill-rule="nonzero"/><path fill="#000000" d="M54.425 145.42778L54.425 143.36528L50.70625 143.36528L50.70625 142.39653L54.628124 136.83403L55.4875 136.83403L55.4875 142.39653L56.64375 142.39653L56.64375 143.36528L55.4875 143.36528L55.4875 145.42778L54.425 145.42778ZM54.425 142.39653L54.425 138.53716L51.7375 142.39653L54.425 142.39653ZM58.05 141.1934Q58.05 139.66216 58.3625 138.74028Q58.675 137.80278 59.284374 137.30278Q59.909374 136.80278 60.846874 136.80278Q61.534374 136.80278 62.05 137.08403Q62.58125 137.36528 62.925 137.89653Q63.26875 138.41216 63.45625 139.16216Q63.64375 139.91216 63.64375 141.1934Q63.64375 142.70903 63.33125 143.6309Q63.034374 144.55278 62.409374 145.0684Q61.8 145.5684 60.846874 145.5684Q59.6125 145.5684 58.89375 144.67778Q58.05 143.61528 58.05 141.1934ZM59.128124 141.1934Q59.128124 143.30278 59.628124 144.0059Q60.128124 144.70903 60.846874 144.70903Q61.58125 144.70903 62.065624 144.0059Q62.565624 143.30278 62.565624 141.1934Q62.565624 139.0684 62.065624 138.3809Q61.58125 137.67778 60.83125 137.67778Q60.1125 137.67778 59.675 138.28716Q59.128124 139.0684 59.128124 141.1934ZM65.05 141.1934Q65.05 139.66216 65.3625 138.74028Q65.675 137.80278 66.28438 137.30278Q66.90938 136.80278 67.84688 136.80278Q68.53438 136.80278 69.05 137.08403Q69.58125 137.36528 69.925 137.89653Q70.26875 138.41216 70.45625 139.16216Q70.64375 139.91216 70.64375 141.1934Q70.64375 142.70903 70.33125 143.6309Q70.03438 144.55278 69.40938 145.0684Q68.8 145.5684 67.84688 145.5684Q66.6125 145.5684 65.89375 144.67778Q65.05 143.61528 65.05 141.1934ZM66.12813 141.1934Q66.12813 143.30278 66.62813 144.0059Q67.12813 144.70903 67.84688 144.70903Q68.58125 144.70903 69.06563 144.0059Q69.56563 143.30278 69.56563 141.1934Q69.56563 139.0684 69.06563 138.3809Q68.58125 137.67778 67.83125 137.67778Q67.1125 137.67778 66.675 138.28716Q66.12813 139.0684 66.12813 141.1934Z" fill-rule="nonzero"/><path fill="#000000" d="M56.51875 59.43229L55.471874 59.510414Q55.33125 58.885414 55.08125 58.604164Q54.64375 58.15104 54.01875 58.15104Q53.51875 58.15104 53.128124 58.43229Q52.64375 58.80729 52.346874 59.510414Q52.065624 60.197914 52.05 61.479164Q52.425 60.90104 52.971874 60.61979Q53.534374 60.33854 54.14375 60.33854Q55.190624 60.33854 55.925 61.11979Q56.675 61.90104 56.675 63.11979Q56.675 63.93229 56.315624 64.635414Q55.971874 65.322914 55.3625 65.697914Q54.753124 66.05729 53.9875 66.05729Q52.659374 66.05729 51.83125 65.08854Q51.003124 64.11979 51.003124 61.90104Q51.003124 59.40104 51.925 58.27604Q52.721874 57.291664 54.08125 57.291664Q55.096874 57.291664 55.7375 57.86979Q56.39375 58.43229 56.51875 59.43229ZM52.221874 63.135414Q52.221874 63.68229 52.440624 64.18229Q52.675 64.666664 53.08125 64.93229Q53.503124 65.197914 53.971874 65.197914Q54.628124 65.197914 55.1125 64.666664Q55.596874 64.11979 55.596874 63.197914Q55.596874 62.30729 55.1125 61.791664Q54.64375 61.27604 53.925 61.27604Q53.20625 61.27604 52.70625 61.791664Q52.221874 62.30729 52.221874 63.135414ZM58.05 61.68229Q58.05 60.15104 58.3625 59.229164Q58.675 58.291664 59.284374 57.791664Q59.909374 57.291664 60.846874 57.291664Q61.534374 57.291664 62.05 57.572914Q62.58125 57.854164 62.925 58.385414Q63.26875 58.90104 63.45625 59.65104Q63.64375 60.40104 63.64375 61.68229Q63.64375 63.197914 63.33125 64.11979Q63.034374 65.041664 62.409374 65.55729Q61.8 66.05729 60.846874 66.05729Q59.6125 66.05729 58.89375 65.166664Q58.05 64.104164 58.05 61.68229ZM59.128124 61.68229Q59.128124 63.791664 59.628124 64.49479Q60.128124 65.197914 60.846874 65.197914Q61.58125 65.197914 62.065624 64.49479Q62.565624 63.791664 62.565624 61.68229Q62.565624 59.55729 62.065624 58.86979Q61.58125 58.166664 60.83125 58.166664Q60.1125 58.166664 59.675 58.77604Q59.128124 59.55729 59.128124 61.68229ZM65.05 61.68229Q65.05 60.15104 65.3625 59.229164Q65.675 58.291664 66.28438 57.791664Q66.90938 57.291664 67.84688 57.291664Q68.53438 57.291664 69.05 57.572914Q69.58125 57.854164 69.925 58.385414Q70.26875 58.90104 70.45625 59.65104Q70.64375 60.40104 70.64375 61.68229Q70.64375 63.197914 70.33125 64.11979Q70.03438 65.041664 69.40938 65.55729Q68.8 66.05729 67.84688 66.05729Q66.6125 66.05729 65.89375 65.166664Q65.05 64.104164 65.05 61.68229ZM66.12813 61.68229Q66.12813 63.791664 66.62813 64.49479Q67.12813 65.197914 67.84688 65.197914Q68.58125 65.197914 69.06563 64.49479Q69.56563 63.791664 69.56563 61.68229Q69.56563 59.55729 69.06563 58.86979Q68.58125 58.166664 67.83125 58.166664Q67.1125 58.166664 66.675 58.77604Q66.12813 59.55729 66.12813 61.68229Z" fill-rule="nonzero"/><path fill="#000000" d="M115.86354 316.4344L115.86354 317.45L110.17604 317.45Q110.17604 317.075 110.30104 316.71564Q110.51979 316.1375 110.98854 315.575Q111.472916 315.0125 112.379166 314.27814Q113.785416 313.1219 114.26979 312.45Q114.76979 311.77814 114.76979 311.1844Q114.76979 310.5594 114.316666 310.1375Q113.86354 309.7 113.14479 309.7Q112.379166 309.7 111.92604 310.15314Q111.472916 310.60626 111.45729 311.41876L110.379166 311.3094Q110.48854 310.09064 111.20729 309.46564Q111.941666 308.825 113.17604 308.825Q114.410416 308.825 115.129166 309.5125Q115.847916 310.2 115.847916 311.21564Q115.847916 311.73126 115.629166 312.23126Q115.42604 312.71564 114.92604 313.27814Q114.441666 313.825 113.316666 314.77814Q112.36354 315.575 112.08229 315.8719Q111.816666 316.15314 111.64479 316.4344L115.86354 316.4344Z" fill-rule="nonzero"/><path fill="#000000" d="M185.225 317.45L185.225 315.3875L181.50626 315.3875L181.50626 314.41876L185.42813 308.85626L186.2875 308.85626L186.2875 314.41876L187.44376 314.41876L187.44376 315.3875L186.2875 315.3875L186.2875 317.45L185.225 317.45ZM185.225 314.41876L185.225 310.5594L182.5375 314.41876L185.225 314.41876Z" fill-rule="nonzero"/><path fill="#000000" d="M258.85208 310.96564L257.8052 311.04376Q257.66458 310.41876 257.41458 310.1375Q256.97708 309.6844 256.35208 309.6844Q255.85208 309.6844 255.46146 309.96564Q254.97708 310.34064 254.6802 311.04376Q254.39896 311.73126 254.38333 313.0125Q254.75833 312.4344 255.3052 312.15314Q255.8677 311.8719 256.47708 311.8719Q257.52396 311.8719 258.25833 312.65314Q259.00833 313.4344 259.00833 314.65314Q259.00833 315.46564 258.64896 316.16876Q258.3052 316.85626 257.69583 317.23126Q257.08646 317.59064 256.32083 317.59064Q254.9927 317.59064 254.16458 316.6219Q253.33646 315.65314 253.33646 313.4344Q253.33646 310.9344 254.25833 309.8094Q255.0552 308.825 256.41458 308.825Q257.4302 308.825 258.07083 309.40314Q258.72708 309.96564 258.85208 310.96564ZM254.5552 314.66876Q254.5552 315.21564 254.77396 315.71564Q255.00833 316.2 255.41458 316.46564Q255.83646 316.73126 256.3052 316.73126Q256.96146 316.73126 257.44583 316.2Q257.9302 315.65314 257.9302 314.73126Q257.9302 313.84064 257.44583 313.325Q256.97708 312.8094 256.25833 312.8094Q255.53958 312.8094 255.03958 313.325Q254.5552 313.84064 254.5552 314.66876Z" fill-rule="nonzero"/><path fill="#000000" d="M326.54166 312.79376Q325.8854 312.54376 325.55728 312.10626Q325.24478 311.65314 325.24478 311.04376Q325.24478 310.10626 325.91666 309.46564Q326.60416 308.825 327.71353 308.825Q328.83853 308.825 329.52603 309.48126Q330.21353 310.1375 330.21353 311.075Q330.21353 311.66876 329.90103 312.10626Q329.58853 312.54376 328.9479 312.79376Q329.74478 313.04376 330.15103 313.6219Q330.55728 314.2 330.55728 314.9969Q330.55728 316.09064 329.77603 316.84064Q329.0104 317.59064 327.72916 317.59064Q326.46353 317.59064 325.68228 316.84064Q324.90103 316.09064 324.90103 314.96564Q324.90103 314.1219 325.3229 313.5594Q325.7604 312.9969 326.54166 312.79376ZM326.3229 310.9969Q326.3229 311.60626 326.71353 311.9969Q327.11978 312.3875 327.74478 312.3875Q328.35416 312.3875 328.74478 312.0125Q329.1354 311.6219 329.1354 311.0594Q329.1354 310.48126 328.72916 310.09064Q328.3229 309.6844 327.72916 309.6844Q327.11978 309.6844 326.71353 310.075Q326.3229 310.46564 326.3229 310.9969ZM325.99478 314.96564Q325.99478 315.41876 326.1979 315.84064Q326.41666 316.2625 326.83853 316.4969Q327.2604 316.73126 327.74478 316.73126Q328.49478 316.73126 328.97916 316.2469Q329.47916 315.7625 329.47916 315.0125Q329.47916 314.2469 328.97916 313.7469Q328.47916 313.2469 327.71353 313.2469Q326.96353 313.2469 326.47916 313.7469Q325.99478 314.23126 325.99478 314.96564Z" fill-rule="nonzero"/><path fill="#000000" d="M396.91876 317.45L395.8719 317.45L395.8719 310.73126Q395.48126 311.09064 394.85626 311.46564Q394.2469 311.825 393.7625 311.9969L393.7625 310.98126Q394.6375 310.5594 395.29376 309.98126Q395.96564 309.3875 396.2469 308.825L396.91876 308.825L396.91876 317.45ZM399.95 313.21564Q399.95 311.6844 400.2625 310.7625Q400.575 309.825 401.1844 309.325Q401.8094 308.825 402.7469 308.825Q403.4344 308.825 403.95 309.10626Q404.48126 309.3875 404.825 309.91876Q405.16876 310.4344 405.35626 311.1844Q405.54376 311.9344 405.54376 313.21564Q405.54376 314.73126 405.23126 315.65314Q404.9344 316.575 404.3094 317.09064Q403.7 317.59064 402.7469 317.59064Q401.5125 317.59064 400.79376 316.7Q399.95 315.6375 399.95 313.21564ZM401.02814 313.21564Q401.02814 315.325 401.52814 316.02814Q402.02814 316.73126 402.7469 316.73126Q403.48126 316.73126 403.96564 316.02814Q404.46564 315.325 404.46564 313.21564Q404.46564 311.09064 403.96564 310.40314Q403.48126 309.7 402.73126 309.7Q402.0125 309.7 401.575 310.3094Q401.02814 311.09064 401.02814 313.21564Z" fill-rule="nonzero"/><path fill="#757575" d="M63.359375 37.55L60.21875 37.55L58.96875 34.3L53.25 34.3L52.0625 37.55L49.0 37.55L54.578125 23.2375L57.640625 23.2375L63.359375 37.55ZM58.046875 31.878124L56.078125 26.565624L54.140625 31.878124L58.046875 31.878124ZM64.359375 27.175L66.921875 27.175L66.921875 28.70625Q67.421875 27.925 68.265625 27.440624Q69.109375 26.940624 70.15625 26.940624Q71.953125 26.940624 73.203125 28.3625Q74.46875 29.76875 74.46875 32.3Q74.46875 34.909374 73.203125 36.346874Q71.9375 37.784374 70.125 37.784374Q69.265625 37.784374 68.5625 37.440624Q67.875 37.096874 67.109375 36.26875L67.109375 41.503124L64.359375 41.503124L64.359375 27.175ZM67.078125 32.190624Q67.078125 33.940624 67.765625 34.784374Q68.453125 35.6125 69.453125 35.6125Q70.40625 35.6125 71.046875 34.846874Q71.6875 34.065624 71.6875 32.33125Q71.6875 30.690624 71.03125 29.909374Q70.375 29.1125 69.40625 29.1125Q68.40625 29.1125 67.734375 29.89375Q67.078125 30.659374 67.078125 32.190624ZM79.0625 37.55L76.3125 37.55L76.3125 27.175L78.875 27.175L78.875 28.659374Q79.515625 27.6125 80.03125 27.284374Q80.5625 26.940624 81.234375 26.940624Q82.171875 26.940624 83.03125 27.45625L82.1875 29.846874Q81.5 29.409374 80.90625 29.409374Q80.328125 29.409374 79.921875 29.721874Q79.515625 30.034374 79.28125 30.878124Q79.0625 31.70625 79.0625 34.346874L79.0625 37.55ZM90.4375 34.253124L93.171875 34.70625Q92.65625 36.20625 91.515625 37.003124Q90.375 37.784374 88.671875 37.784374Q85.953125 37.784374 84.65625 36.01875Q83.640625 34.596874 83.640625 32.440624Q83.640625 29.8625 84.984375 28.409374Q86.328125 26.940624 88.390625 26.940624Q90.703125 26.940624 92.03125 28.471874Q93.375 30.003124 93.328125 33.159374L86.453125 33.159374Q86.484375 34.378124 87.109375 35.065624Q87.75 35.7375 88.6875 35.7375Q89.34375 35.7375 89.78125 35.39375Q90.21875 35.034374 90.4375 34.253124ZM90.59375 31.471874Q90.5625 30.284374 89.96875 29.675Q89.390625 29.05 88.5625 29.05Q87.65625 29.05 87.078125 29.690624Q86.484375 30.346874 86.5 31.471874L90.59375 31.471874ZM104.875 37.55L102.125 37.55L102.125 32.253124Q102.125 30.58125 101.953125 30.096874Q101.78125 29.596874 101.375 29.33125Q100.984375 29.05 100.421875 29.05Q99.71875 29.05 99.140625 29.440624Q98.578125 29.83125 98.359375 30.471874Q98.15625 31.1125 98.15625 32.846874L98.15625 37.55L95.421875 37.55L95.421875 27.175L97.96875 27.175L97.96875 28.70625Q99.328125 26.940624 101.390625 26.940624Q102.296875 26.940624 103.046875 27.26875Q103.796875 27.596874 104.171875 28.1125Q104.5625 28.6125 104.71875 29.26875Q104.875 29.909374 104.875 31.096874L104.875 37.55ZM116.953125 37.55L114.40625 37.55L114.40625 36.01875Q113.765625 36.909374 112.890625 37.346874Q112.03125 37.784374 111.15625 37.784374Q109.375 37.784374 108.09375 36.346874Q106.828125 34.909374 106.828125 32.33125Q106.828125 29.690624 108.0625 28.315624Q109.296875 26.940624 111.203125 26.940624Q112.9375 26.940624 114.203125 28.39375L114.203125 23.2375L116.953125 23.2375L116.953125 37.55ZM109.625 32.14375Q109.625 33.8 110.078125 34.534374Q110.75 35.6125 111.9375 35.6125Q112.890625 35.6125 113.546875 34.815624Q114.21875 34.003124 114.21875 32.409374Q114.21875 30.6125 113.5625 29.83125Q112.921875 29.05 111.921875 29.05Q110.9375 29.05 110.28125 29.83125Q109.625 30.596874 109.625 32.14375ZM119.4375 25.76875L119.4375 23.2375L122.1875 23.2375L122.1875 25.76875L119.4375 25.76875ZM119.4375 37.55L119.4375 27.175L122.1875 27.175L122.1875 37.55L119.4375 37.55ZM124.328125 37.55L124.328125 35.409374L128.21875 30.940624Q129.17188 29.846874 129.64062 29.39375Q129.15625 29.425 128.375 29.440624L124.71875 29.45625L124.71875 27.175L133.28125 27.175L133.28125 29.128124L129.32812 33.690624L127.921875 35.20625Q129.0625 35.14375 129.34375 35.14375L133.59375 35.14375L133.59375 37.55L124.328125 37.55ZM137.48438 30.346874L135.0 29.89375Q135.42188 28.39375 136.4375 27.675Q137.46875 26.940624 139.48438 26.940624Q141.32812 26.940624 142.21875 27.378124Q143.125 27.815624 143.48438 28.4875Q143.85938 29.14375 143.85938 30.940624L143.82812 34.14375Q143.82812 35.503124 143.95312 36.159374Q144.09375 36.8 144.45312 37.55L141.73438 37.55Q141.625 37.26875 141.46875 36.7375Q141.40625 36.4875 141.375 36.409374Q140.67188 37.096874 139.85938 37.440624Q139.0625 37.784374 138.15625 37.784374Q136.5625 37.784374 135.64062 36.925Q134.71875 36.05 134.71875 34.721874Q134.71875 33.83125 135.125 33.14375Q135.54688 32.45625 136.29688 32.096874Q137.0625 31.721874 138.5 31.45625Q140.42188 31.096874 141.15625 30.784374L141.15625 30.503124Q141.15625 29.721874 140.76562 29.39375Q140.375 29.05 139.29688 29.05Q138.5625 29.05 138.14062 29.33125Q137.73438 29.6125 137.48438 30.346874ZM141.15625 32.565624Q140.625 32.7375 139.48438 32.9875Q138.34375 33.2375 138.0 33.471874Q137.45312 33.846874 137.45312 34.440624Q137.45312 35.003124 137.875 35.425Q138.3125 35.846874 138.98438 35.846874Q139.71875 35.846874 140.39062 35.3625Q140.89062 34.9875 141.04688 34.45625Q141.15625 34.096874 141.15625 33.1125L141.15625 32.565624ZM155.95312 37.55L153.40625 37.55L153.40625 36.01875Q152.76562 36.909374 151.89062 37.346874Q151.03125 37.784374 150.15625 37.784374Q148.375 37.784374 147.09375 36.346874Q145.82812 34.909374 145.82812 32.33125Q145.82812 29.690624 147.0625 28.315624Q148.29688 26.940624 150.20312 26.940624Q151.9375 26.940624 153.20312 28.39375L153.20312 23.2375L155.95312 23.2375L155.95312 37.55ZM148.625 32.14375Q148.625 33.8 149.07812 34.534374Q149.75 35.6125 150.9375 35.6125Q151.89062 35.6125 152.54688 34.815624Q153.21875 34.003124 153.21875 32.409374Q153.21875 30.6125 152.5625 29.83125Q151.92188 29.05 150.92188 29.05Q149.9375 29.05 149.28125 29.83125Q148.625 30.596874 148.625 32.14375ZM157.79688 32.221874Q157.79688 30.846874 158.46875 29.565624Q159.15625 28.284374 160.39062 27.6125Q161.625 26.940624 163.14062 26.940624Q165.5 26.940624 167.0 28.471874Q168.5 30.003124 168.5 32.33125Q168.5 34.690624 166.98438 36.2375Q165.46875 37.784374 163.15625 37.784374Q161.73438 37.784374 160.4375 37.14375Q159.15625 36.4875 158.46875 35.253124Q157.79688 34.003124 157.79688 32.221874ZM160.60938 32.3625Q160.60938 33.909374 161.34375 34.7375Q162.07812 35.55 163.15625 35.55Q164.23438 35.55 164.95312 34.7375Q165.6875 33.909374 165.6875 32.346874Q165.6875 30.815624 164.95312 30.003124Q164.23438 29.175 163.15625 29.175Q162.07812 29.175 161.34375 30.003124Q160.60938 30.815624 160.60938 32.3625ZM175.125 37.55L178.85938 32.20625L175.28125 27.175L178.625 27.175L180.45312 30.034374L182.39062 27.175L185.60938 27.175L182.09375 32.096874L185.9375 37.55L182.5625 37.55L180.45312 34.33125L178.32812 37.55L175.125 37.55ZM202.60938 32.284374L205.42188 33.175Q204.78125 35.51875 203.28125 36.659374Q201.78125 37.8 199.46875 37.8Q196.625 37.8 194.78125 35.846874Q192.95312 33.89375 192.95312 30.51875Q192.95312 26.940624 194.79688 24.971874Q196.64062 22.9875 199.64062 22.9875Q202.28125 22.9875 203.92188 24.534374Q204.89062 25.45625 205.375 27.175L202.51562 27.8625Q202.26562 26.753124 201.45312 26.1125Q200.65625 25.45625 199.5 25.45625Q197.90625 25.45625 196.90625 26.596874Q195.92188 27.7375 195.92188 30.3Q195.92188 33.01875 196.89062 34.175Q197.875 35.315624 199.4375 35.315624Q200.59375 35.315624 201.42188 34.596874Q202.25 33.8625 202.60938 32.284374ZM206.79688 32.221874Q206.79688 30.846874 207.46875 29.565624Q208.15625 28.284374 209.39062 27.6125Q210.625 26.940624 212.14062 26.940624Q214.5 26.940624 216.0 28.471874Q217.5 30.003124 217.5 32.33125Q217.5 34.690624 215.98438 36.2375Q214.46875 37.784374 212.15625 37.784374Q210.73438 37.784374 209.4375 37.14375Q208.15625 36.4875 207.46875 35.253124Q206.79688 34.003124 206.79688 32.221874ZM209.60938 32.3625Q209.60938 33.909374 210.34375 34.7375Q211.07812 35.55 212.15625 35.55Q213.23438 35.55 213.95312 34.7375Q214.6875 33.909374 214.6875 32.346874Q214.6875 30.815624 213.95312 30.003124Q213.23438 29.175 212.15625 29.175Q211.07812 29.175 210.34375 30.003124Q209.60938 30.815624 209.60938 32.3625ZM219.23438 27.175L221.76562 27.175L221.76562 28.596874Q223.125 26.940624 225.0 26.940624Q225.98438 26.940624 226.71875 27.3625Q227.45312 27.76875 227.92188 28.596874Q228.60938 27.76875 229.39062 27.3625Q230.1875 26.940624 231.09375 26.940624Q232.23438 26.940624 233.01562 27.409374Q233.8125 27.878124 234.20312 28.76875Q234.48438 29.440624 234.48438 30.925L234.48438 37.55L231.73438 37.55L231.73438 31.628124Q231.73438 30.08125 231.45312 29.628124Q231.07812 29.05 230.28125 29.05Q229.70312 29.05 229.1875 29.409374Q228.6875 29.753124 228.46875 30.425Q228.25 31.096874 228.25 32.565624L228.25 37.55L225.5 37.55L225.5 31.8625Q225.5 30.346874 225.34375 29.909374Q225.20312 29.471874 224.89062 29.26875Q224.59375 29.05 224.0625 29.05Q223.4375 29.05 222.92188 29.39375Q222.42188 29.721874 222.1875 30.378124Q221.96875 31.01875 221.96875 32.503124L221.96875 37.55L219.23438 37.55L219.23438 27.175ZM237.35938 27.175L239.92188 27.175L239.92188 28.70625Q240.42188 27.925 241.26562 27.440624Q242.10938 26.940624 243.15625 26.940624Q244.95312 26.940624 246.20312 28.3625Q247.46875 29.76875 247.46875 32.3Q247.46875 34.909374 246.20312 36.346874Q244.9375 37.784374 243.125 37.784374Q242.26562 37.784374 241.5625 37.440624Q240.875 37.096874 240.10938 36.26875L240.10938 41.503124L237.35938 41.503124L237.35938 27.175ZM240.07812 32.190624Q240.07812 33.940624 240.76562 34.784374Q241.45312 35.6125 242.45312 35.6125Q243.40625 35.6125 244.04688 34.846874Q244.6875 34.065624 244.6875 32.33125Q244.6875 30.690624 244.03125 29.909374Q243.375 29.1125 242.40625 29.1125Q241.40625 29.1125 240.73438 29.89375Q240.07812 30.659374 240.07812 32.190624ZM251.48438 30.346874L249.0 29.89375Q249.42188 28.39375 250.4375 27.675Q251.46875 26.940624 253.48438 26.940624Q255.32812 26.940624 256.21875 27.378124Q257.125 27.815624 257.48438 28.4875Q257.85938 29.14375 257.85938 30.940624L257.82812 34.14375Q257.82812 35.503124 257.95312 36.159374Q258.09375 36.8 258.45312 37.55L255.73438 37.55Q255.625 37.26875 255.46875 36.7375Q255.40625 36.4875 255.375 36.409374Q254.67188 37.096874 253.85938 37.440624Q253.0625 37.784374 252.15625 37.784374Q250.5625 37.784374 249.64062 36.925Q248.71875 36.05 248.71875 34.721874Q248.71875 33.83125 249.125 33.14375Q249.54688 32.45625 250.29688 32.096874Q251.0625 31.721874 252.5 31.45625Q254.42188 31.096874 255.15625 30.784374L255.15625 30.503124Q255.15625 29.721874 254.76562 29.39375Q254.375 29.05 253.29688 29.05Q252.5625 29.05 252.14062 29.33125Q251.73438 29.6125 251.48438 30.346874ZM255.15625 32.565624Q254.625 32.7375 253.48438 32.9875Q252.34375 33.2375 252.0 33.471874Q251.45312 33.846874 251.45312 34.440624Q251.45312 35.003124 251.875 35.425Q252.3125 35.846874 252.98438 35.846874Q253.71875 35.846874 254.39062 35.3625Q254.89062 34.9875 255.04688 34.45625Q255.15625 34.096874 255.15625 33.1125L255.15625 32.565624ZM263.0625 37.55L260.3125 37.55L260.3125 27.175L262.875 27.175L262.875 28.659374Q263.51562 27.6125 264.03125 27.284374Q264.5625 26.940624 265.23438 26.940624Q266.17188 26.940624 267.03125 27.45625L266.1875 29.846874Q265.5 29.409374 264.90625 29.409374Q264.32812 29.409374 263.92188 29.721874Q263.51562 30.034374 263.28125 30.878124Q263.0625 31.70625 263.0625 34.346874L263.0625 37.55ZM273.1875 27.175L273.1875 29.3625L271.3125 29.3625L271.3125 33.55Q271.3125 34.815624 271.35938 35.034374Q271.42188 35.2375 271.60938 35.378124Q271.8125 35.503124 272.07812 35.503124Q272.45312 35.503124 273.1875 35.2375L273.42188 37.378124Q272.45312 37.784374 271.25 37.784374Q270.5 37.784374 269.90625 37.534374Q269.3125 37.284374 269.03125 36.89375Q268.76562 36.4875 268.65625 35.815624Q268.5625 35.346874 268.5625 33.89375L268.5625 29.3625L267.29688 29.3625L267.29688 27.175L268.5625 27.175L268.5625 25.1125L271.3125 23.51875L271.3125 27.175L273.1875 27.175ZM275.4375 25.76875L275.4375 23.2375L278.1875 23.2375L278.1875 25.76875L275.4375 25.76875ZM275.4375 37.55L275.4375 27.175L278.1875 27.175L278.1875 37.55L275.4375 37.55ZM281.4375 37.55L281.4375 23.2375L284.1875 23.2375L284.1875 37.55L281.4375 37.55ZM290.17188 23.2375L290.17188 28.503124Q291.5 26.940624 293.34375 26.940624Q294.29688 26.940624 295.04688 27.3Q295.8125 27.64375 296.20312 28.190624Q296.59375 28.7375 296.73438 29.409374Q296.875 30.065624 296.875 31.471874L296.875 37.55L294.125 37.55L294.125 32.065624Q294.125 30.440624 293.96875 30.003124Q293.8125 29.565624 293.40625 29.315624Q293.01562 29.05 292.42188 29.05Q291.75 29.05 291.20312 29.378124Q290.67188 29.70625 290.42188 30.378124Q290.17188 31.05 290.17188 32.346874L290.17188 37.55L287.42188 37.55L287.42188 23.2375L290.17188 23.2375ZM301.48438 30.346874L299.0 29.89375Q299.42188 28.39375 300.4375 27.675Q301.46875 26.940624 303.48438 26.940624Q305.32812 26.940624 306.21875 27.378124Q307.125 27.815624 307.48438 28.4875Q307.85938 29.14375 307.85938 30.940624L307.82812 34.14375Q307.82812 35.503124 307.95312 36.159374Q308.09375 36.8 308.45312 37.55L305.73438 37.55Q305.625 37.26875 305.46875 36.7375Q305.40625 36.4875 305.375 36.409374Q304.67188 37.096874 303.85938 37.440624Q303.0625 37.784374 302.15625 37.784374Q300.5625 37.784374 299.64062 36.925Q298.71875 36.05 298.71875 34.721874Q298.71875 33.83125 299.125 33.14375Q299.54688 32.45625 300.29688 32.096874Q301.0625 31.721874 302.5 31.45625Q304.42188 31.096874 305.15625 30.784374L305.15625 30.503124Q305.15625 29.721874 304.76562 29.39375Q304.375 29.05 303.29688 29.05Q302.5625 29.05 302.14062 29.33125Q301.73438 29.6125 301.48438 30.346874ZM305.15625 32.565624Q304.625 32.7375 303.48438 32.9875Q302.34375 33.2375 302.0 33.471874Q301.45312 33.846874 301.45312 34.440624Q301.45312 35.003124 301.875 35.425Q302.3125 35.846874 302.98438 35.846874Q303.71875 35.846874 304.39062 35.3625Q304.89062 34.9875 305.04688 34.45625Q305.15625 34.096874 305.15625 33.1125L305.15625 32.565624ZM310.23438 27.175L312.76562 27.175L312.76562 28.596874Q314.125 26.940624 316.0 26.940624Q316.98438 26.940624 317.71875 27.3625Q318.45312 27.76875 318.92188 28.596874Q319.60938 27.76875 320.39062 27.3625Q321.1875 26.940624 322.09375 26.940624Q323.23438 26.940624 324.01562 27.409374Q324.8125 27.878124 325.20312 28.76875Q325.48438 29.440624 325.48438 30.925L325.48438 37.55L322.73438 37.55L322.73438 31.628124Q322.73438 30.08125 322.45312 29.628124Q322.07812 29.05 321.28125 29.05Q320.70312 29.05 320.1875 29.409374Q319.6875 29.753124 319.46875 30.425Q319.25 31.096874 319.25 32.565624L319.25 37.55L316.5 37.55L316.5 31.8625Q316.5 30.346874 316.34375 29.909374Q316.20312 29.471874 315.89062 29.26875Q315.59375 29.05 315.0625 29.05Q314.4375 29.05 313.92188 29.39375Q313.42188 29.721874 313.1875 30.378124Q312.96875 31.01875 312.96875 32.503124L312.96875 37.55L310.23438 37.55L310.23438 27.175ZM334.4375 34.253124L337.17188 34.70625Q336.65625 36.20625 335.51562 37.003124Q334.375 37.784374 332.67188 37.784374Q329.95312 37.784374 328.65625 36.01875Q327.64062 34.596874 327.64062 32.440624Q327.64062 29.8625 328.98438 28.409374Q330.32812 26.940624 332.39062 26.940624Q334.70312 26.940624 336.03125 28.471874Q337.375 30.003124 337.32812 33.159374L330.45312 33.159374Q330.48438 34.378124 331.10938 35.065624Q331.75 35.7375 332.6875 35.7375Q333.34375 35.7375 333.78125 35.39375Q334.21875 35.034374 334.4375 34.253124ZM334.59375 31.471874Q334.5625 30.284374 333.96875 29.675Q333.39062 29.05 332.5625 29.05Q331.65625 29.05 331.07812 29.690624Q330.48438 30.346874 330.5 31.471874L334.59375 31.471874ZM348.875 37.55L346.125 37.55L346.125 32.253124Q346.125 30.58125 345.95312 30.096874Q345.78125 29.596874 345.375 29.33125Q344.98438 29.05 344.42188 29.05Q343.71875 29.05 343.14062 29.440624Q342.57812 29.83125 342.35938 30.471874Q342.15625 31.1125 342.15625 32.846874L342.15625 37.55L339.42188 37.55L339.42188 27.175L341.96875 27.175L341.96875 28.70625Q343.32812 26.940624 345.39062 26.940624Q346.29688 26.940624 347.04688 27.26875Q347.79688 27.596874 348.17188 28.1125Q348.5625 28.6125 348.71875 29.26875Q348.875 29.909374 348.875 31.096874L348.875 37.55ZM356.1875 27.175L356.1875 29.3625L354.3125 29.3625L354.3125 33.55Q354.3125 34.815624 354.35938 35.034374Q354.42188 35.2375 354.60938 35.378124Q354.8125 35.503124 355.07812 35.503124Q355.45312 35.503124 356.1875 35.2375L356.42188 37.378124Q355.45312 37.784374 354.25 37.784374Q353.5 37.784374 352.90625 37.534374Q352.3125 37.284374 352.03125 36.89375Q351.76562 36.4875 351.65625 35.815624Q351.5625 35.346874 351.5625 33.89375L351.5625 29.3625L350.29688 29.3625L350.29688 27.175L351.5625 27.175L351.5625 25.1125L354.3125 23.51875L354.3125 27.175L356.1875 27.175ZM357.79688 32.221874Q357.79688 30.846874 358.46875 29.565624Q359.15625 28.284374 360.39062 27.6125Q361.625 26.940624 363.14062 26.940624Q365.5 26.940624 367.0 28.471874Q368.5 30.003124 368.5 32.33125Q368.5 34.690624 366.98438 36.2375Q365.46875 37.784374 363.15625 37.784374Q361.73438 37.784374 360.4375 37.14375Q359.15625 36.4875 358.46875 35.253124Q357.79688 34.003124 357.79688 32.221874ZM360.60938 32.3625Q360.60938 33.909374 361.34375 34.7375Q362.07812 35.55 363.15625 35.55Q364.23438 35.55 364.95312 34.7375Q365.6875 33.909374 365.6875 32.346874Q365.6875 30.815624 364.95312 30.003124Q364.23438 29.175 363.15625 29.175Q362.07812 29.175 361.34375 30.003124Q360.60938 30.815624 360.60938 32.3625Z" fill-rule="nonzero"/></svg>