<?xml version="1.0" encoding="iso-8859-1"?>
<!-- Generator: Adobe Illustrator 19.0.0, SVG Export Plug-In . SVG Version: 6.00 Build 0)  -->
<svg version="1.1" id="Layer_1" xmlns="http://www.w3.org/2000/svg" xmlns:xlink="http://www.w3.org/1999/xlink" x="0px" y="0px"
	 viewBox="0 0 512 512" style="enable-background:new 0 0 512 512;" xml:space="preserve" width="42" height="42">
<g transform="translate(1 1)">
	<g>
		<path style="fill:#FFE100;" d="M485.4,272.067c-2.56,0-4.267-0.853-5.973-2.56c-3.413-3.413-3.413-8.533,0-11.947
			c11.093-11.093,14.507-20.48,14.507-36.693c0-29.867-16.213-59.733-51.2-59.733c-33.28,0-59.733,26.453-59.733,59.733
			c0,17.067,3.413,25.6,14.507,36.693c3.413,3.413,3.413,8.533,0,11.947c-3.413,3.413-8.533,3.413-11.947,0
			c-14.507-13.653-19.627-27.307-19.627-48.64c0-42.667,34.133-76.8,76.8-76.8c40.107,0,68.267,31.573,68.267,76.8
			c0,20.48-5.973,34.133-19.627,48.64C489.667,271.213,487.96,272.067,485.4,272.067z"/>
		<path style="fill:#FFE100;" d="M442.733,161.133c-5.12,0-8.533-3.413-8.533-8.533V16.067c0-5.12,3.413-8.533,8.533-8.533
			c5.12,0,8.533,3.413,8.533,8.533V152.6C451.267,157.72,447.853,161.133,442.733,161.133z"/>
		<path style="fill:#FFE100;" d="M50.2,203.8c-2.56,0-4.267-0.853-5.973-2.56C29.72,187.587,24.6,173.933,24.6,152.6
			c0-42.667,34.133-76.8,76.8-76.8s76.8,34.133,76.8,76.8c0,20.48-5.973,34.133-19.627,48.64c-3.413,3.413-8.533,3.413-11.947,0
			s-3.413-8.533,0-11.947c11.093-11.093,14.507-20.48,14.507-36.693c0-33.28-26.453-59.733-59.733-59.733
			S41.667,119.32,41.667,152.6c0,17.067,3.413,25.6,14.507,36.693c3.413,3.413,3.413,8.533,0,11.947
			C54.467,202.947,52.76,203.8,50.2,203.8z"/>
		<path style="fill:#FFE100;" d="M101.4,92.867c-5.12,0-8.533-3.413-8.533-8.533V16.067c0-5.12,3.413-8.533,8.533-8.533
			c5.12,0,8.533,3.413,8.533,8.533v68.267C109.933,89.453,106.52,92.867,101.4,92.867z"/>
	</g>
	<path style="fill:#FDCC00;" d="M468.333,502.467H41.667c-18.773,0-34.133-15.36-34.133-34.133c0-18.773,15.36-34.133,34.133-34.133
		h426.667c18.773,0,34.133,15.36,34.133,34.133C502.467,487.107,487.107,502.467,468.333,502.467"/>
	<g>
		<path style="fill:#FFE100;" d="M144.067,434.2H24.6V330.947c0-8.533,6.827-16.213,16.213-16.213h87.04
			c8.533,0,16.213,6.827,16.213,16.213V434.2z"/>
		<path style="fill:#FFE100;" d="M314.733,434.2H195.267V330.947c0-8.533,6.827-16.213,16.213-16.213h87.04
			c8.533,0,16.213,6.827,16.213,16.213V434.2z"/>
		<path style="fill:#FFE100;" d="M485.4,434.2H365.933V330.947c0-8.533,6.827-16.213,16.213-16.213h87.04
			c8.533,0,16.213,6.827,16.213,16.213L485.4,434.2L485.4,434.2z"/>
	</g>
	<g>
		<path style="fill:#FFA800;" d="M468.333,434.2h-25.6c18.773,0,34.133,15.36,34.133,34.133c0,18.773-15.36,34.133-34.133,34.133
			h25.6c18.773,0,34.133-15.36,34.133-34.133C502.467,449.56,487.107,434.2,468.333,434.2"/>
		<path style="fill:#FFA800;" d="M469.187,314.733h-25.6c8.533,0,16.213,6.827,16.213,16.213V434.2h25.6V330.947
			C485.4,321.56,478.573,314.733,469.187,314.733"/>
	</g>
	<g>
		<path style="fill:#FFFFFF;" d="M41.667,434.2h25.6c-18.773,0-34.133,15.36-34.133,34.133c0,18.773,15.36,34.133,34.133,34.133
			h-25.6c-18.773,0-34.133-15.36-34.133-34.133C7.533,449.56,22.893,434.2,41.667,434.2"/>
		<path style="fill:#FFFFFF;" d="M40.813,314.733h25.6c-8.533,0-16.213,6.827-16.213,16.213V434.2H24.6V330.947
			C24.6,321.56,31.427,314.733,40.813,314.733"/>
	</g>
	<path d="M58.733,468.333c0-5.12-3.413-8.533-8.533-8.533s-8.533,3.413-8.533,8.533c0,5.12,3.413,8.533,8.533,8.533
		S58.733,473.453,58.733,468.333"/>
	<path d="M92.867,468.333c0-5.12-3.413-8.533-8.533-8.533s-8.533,3.413-8.533,8.533c0,5.12,3.413,8.533,8.533,8.533
		S92.867,473.453,92.867,468.333"/>
	<path d="M127,468.333c0-5.12-3.413-8.533-8.533-8.533s-8.533,3.413-8.533,8.533c0,5.12,3.413,8.533,8.533,8.533
		S127,473.453,127,468.333"/>
	<path d="M161.133,468.333c0-5.12-3.413-8.533-8.533-8.533c-5.12,0-8.533,3.413-8.533,8.533c0,5.12,3.413,8.533,8.533,8.533
		C157.72,476.867,161.133,473.453,161.133,468.333"/>
	<path d="M195.267,468.333c0-5.12-3.413-8.533-8.533-8.533c-5.12,0-8.533,3.413-8.533,8.533c0,5.12,3.413,8.533,8.533,8.533
		C191.853,476.867,195.267,473.453,195.267,468.333"/>
	<path d="M229.4,468.333c0-5.12-3.413-8.533-8.533-8.533c-5.12,0-8.533,3.413-8.533,8.533c0,5.12,3.413,8.533,8.533,8.533
		C225.987,476.867,229.4,473.453,229.4,468.333"/>
	<path d="M263.533,468.333c0-5.12-3.413-8.533-8.533-8.533s-8.533,3.413-8.533,8.533c0,5.12,3.413,8.533,8.533,8.533
		S263.533,473.453,263.533,468.333"/>
	<path d="M297.667,468.333c0-5.12-3.413-8.533-8.533-8.533c-5.12,0-8.533,3.413-8.533,8.533c0,5.12,3.413,8.533,8.533,8.533
		C294.253,476.867,297.667,473.453,297.667,468.333"/>
	<path d="M331.8,468.333c0-5.12-3.413-8.533-8.533-8.533c-5.12,0-8.533,3.413-8.533,8.533c0,5.12,3.413,8.533,8.533,8.533
		C328.387,476.867,331.8,473.453,331.8,468.333"/>
	<path d="M365.933,468.333c0-5.12-3.413-8.533-8.533-8.533s-8.533,3.413-8.533,8.533c0,5.12,3.413,8.533,8.533,8.533
		S365.933,473.453,365.933,468.333"/>
	<path d="M400.067,468.333c0-5.12-3.413-8.533-8.533-8.533S383,463.213,383,468.333c0,5.12,3.413,8.533,8.533,8.533
		S400.067,473.453,400.067,468.333"/>
	<path d="M434.2,468.333c0-5.12-3.413-8.533-8.533-8.533s-8.533,3.413-8.533,8.533c0,5.12,3.413,8.533,8.533,8.533
		S434.2,473.453,434.2,468.333"/>
	<path d="M468.333,468.333c0-5.12-3.413-8.533-8.533-8.533s-8.533,3.413-8.533,8.533c0,5.12,3.413,8.533,8.533,8.533
		S468.333,473.453,468.333,468.333"/>
	<path d="M468.333,511H41.667C17.773,511-1,492.227-1,468.333c0-23.893,18.773-42.667,42.667-42.667h426.667
		c23.893,0,42.667,18.773,42.667,42.667C511,492.227,492.227,511,468.333,511z M41.667,442.733c-14.507,0-25.6,11.093-25.6,25.6
		c0,14.507,11.093,25.6,25.6,25.6h426.667c14.507,0,25.6-11.093,25.6-25.6c0-14.507-11.093-25.6-25.6-25.6H41.667z"/>
	<path d="M485.4,263.533c-2.56,0-4.267-0.853-5.973-2.56c-3.413-3.413-3.413-8.533,0-11.947
		c11.093-11.093,14.507-20.48,14.507-36.693c0-33.28-26.453-59.733-59.733-59.733s-59.733,26.453-59.733,59.733
		c0,17.067,3.413,25.6,14.507,36.693c3.413,3.413,3.413,8.533,0,11.947c-3.413,3.413-8.533,3.413-11.947,0
		c-14.507-13.653-19.627-27.307-19.627-48.64c0-42.667,34.133-76.8,76.8-76.8s76.8,34.133,76.8,76.8
		c0,20.48-5.973,34.133-19.627,48.64C489.667,262.68,487.96,263.533,485.4,263.533z"/>
	<path d="M434.2,152.6c-5.12,0-8.533-3.413-8.533-8.533V7.533c0-5.12,3.413-8.533,8.533-8.533c5.12,0,8.533,3.413,8.533,8.533
		v136.533C442.733,149.187,439.32,152.6,434.2,152.6z"/>
	<path d="M41.667,195.267c-2.56,0-4.267-0.853-5.973-2.56c-14.507-13.653-19.627-27.307-19.627-48.64
		c0-42.667,34.133-76.8,76.8-76.8s76.8,34.133,76.8,76.8c0,20.48-5.973,34.133-19.627,48.64c-3.413,3.413-8.533,3.413-11.947,0
		s-3.413-8.533,0-11.947c11.093-11.093,14.507-20.48,14.507-36.693c0-33.28-26.453-59.733-59.733-59.733
		s-59.733,26.453-59.733,59.733c0,17.067,3.413,25.6,14.507,36.693c3.413,3.413,3.413,8.533,0,11.947
		C45.933,194.413,44.227,195.267,41.667,195.267z"/>
	<path d="M92.867,84.333c-5.12,0-8.533-3.413-8.533-8.533V7.533c0-5.12,3.413-8.533,8.533-8.533s8.533,3.413,8.533,8.533V75.8
		C101.4,80.92,97.987,84.333,92.867,84.333z"/>
	<path d="M152.6,442.733H16.067V330.947c0-13.653,11.093-24.747,24.747-24.747h87.04c13.653,0,24.747,11.093,24.747,24.747V442.733z
		 M33.133,425.667h102.4v-94.72c0-4.267-3.413-7.68-7.68-7.68h-87.04c-4.267,0-7.68,3.413-7.68,7.68V425.667z"/>
	<path d="M323.267,442.733H186.733V330.947c0-13.653,11.093-24.747,24.747-24.747h87.04c13.653,0,24.747,11.093,24.747,24.747
		V442.733z M203.8,425.667h102.4v-94.72c0-4.267-3.413-7.68-7.68-7.68h-87.04c-4.267,0-7.68,3.413-7.68,7.68V425.667z"/>
	<path d="M493.933,442.733H357.4V330.947c0-13.653,11.093-24.747,24.747-24.747h87.04c13.653,0,24.747,11.093,24.747,24.747
		L493.933,442.733L493.933,442.733z M374.467,425.667h102.4v-94.72c0-4.267-3.413-7.68-7.68-7.68h-87.04
		c-4.267,0-7.68,3.413-7.68,7.68V425.667z"/>
</g>
<g>
</g>
<g>
</g>
<g>
</g>
<g>
</g>
<g>
</g>
<g>
</g>
<g>
</g>
<g>
</g>
<g>
</g>
<g>
</g>
<g>
</g>
<g>
</g>
<g>
</g>
<g>
</g>
<g>
</g>
</svg>
